# xmcd
#
# Track frame offsets:
#	150
#	13437
#	25840
#	41792
#	51792
#	63015
#	76317
#	91162
#	102917
#	115282
#	128365
#	140785
#	150157
#	161100
#	178192
#	186400
#
# Disc length: 2635
#
# Revision: 6
# Processed by: cddbd v1.5.1PL0 Copyright (c) Steve Scherf et al.
# Submitted via: Grip 3.0.1
# Normalized: r4:TSWAP
#
DISCID=d10a4910
DTITLE=Various Artist - THIS IS COUNTRY (VOL FOUR)
DYEAR=1900
DGENRE=Country
TTITLE0=Lynn Anderson - I NEVER PROMISED YOU A ROSE GARDEN
TTITLE1=Kenny Rogers - RUBEN JAMES
TTITLE2=Tina Turner - LAY IT DOWN
TTITLE3=Willie Nelson - I DIDN`T SLEEP A WINK
TTITLE4=Jim Reeves - JUST CALL ME LONESOME
TTITLE5=Don Williams - RUBY TUESDAY
TTITLE6=Rick Nelson - MILK COW BLUES BOOGIE
TTITLE7=Waylon Jennings - CRYING
TTITLE8=Federation - TALK DIRTY
TTITLE9=Dolly Parton - LITTLE BLOSSOM
TTITLE10=Tina Turner - IF IT'S ALRIGHT WITH YOU
TTITLE11=Willie Nelson - ONE STEP BEYOND
TTITLE12=Dolly Parton - HONKY TONK ANGELS
TTITLE13=Lynn Anderson - BLUE BAYOU
TTITLE14=Jim Reeves - SWEET EVENING BREEZE
TTITLE15=Razzy Bailey - "9,999,999 TEARS
EXTD=
EXTT0=
EXTT1=
EXTT2=
EXTT3=
EXTT4=
EXTT5=
EXTT6=
EXTT7=
EXTT8=
EXTT9=
EXTT10=
EXTT11=
EXTT12=
EXTT13=
EXTT14=
EXTT15=
PLAYORDER=
